# xmcd CD database file
#
# Track frame offsets:
#	150
#	17765
#	31537
#	52465
#	69015
#	86030
#	106132
#	125260
#	142390
#	155820
#	160327
#	177845
#	194110
#
# Disc length: 3024 seconds
#
# Revision: 0
# Processed by: cddbd v1.5PL3 Copyright (c) Steve Scherf et al.
# Submitted via: CDex 1.40Release
#
DISCID=b70bce0d
DTITLE=MIDGET - Individual Inconsistent
DYEAR=1999
DGENRE=Rock
TTITLE0=Bugs in the Cookie Jar
TTITLE1=Hey You (Yes You)
TTITLE2=These Things You Throw
TTITLE3=The Gullible and the Appetite
TTITLE4=Queue Jumping
TTITLE5=Postcard from the End
TTITLE6=Owen Can Write in Peace
TTITLE7=Successful at Failing
TTITLE8=I Am the Government
TTITLE9=00.48
TTITLE10=Merely on Parade
TTITLE11=Dodgem
TTITLE12=Folk of the Town
EXTD=YEAR: 1999 ID3G: 17
EXTT0=
EXTT1=
EXTT2=
EXTT3=
EXTT4=
EXTT5=
EXTT6=
EXTT7=
EXTT8=
EXTT9=
EXTT10=
EXTT11=
EXTT12=
PLAYORDER=
